# xmcd CD database file
#
# Track frame offsets:
#	150
#	19870
#	36802
#	51513
#	68684
#	88244
#	107236
#	132874
#	155426
#	181268
#	196843
#	221407
#
# Disc length: 3600 seconds
#
# Revision: 0
# Processed by: cddbd v1.4PL0 Copyright (c) Steve Scherf et al.
# Submitted via: Feurio! 1.63 - http://www.feurio.com
#
DISCID=a50e0e0c
DTITLE=Fraction - Le Son N'Histoire
DYEAR=1900
DGENRE=
TTITLE0=Emeutes
TTITLE1=Fraction
TTITLE2=Ecoguerrier
TTITLE3=Fire Celite
TTITLE4=Lesprit Des Forets
TTITLE5=(0 Jours, (0 Nuits
TTITLE6=Vivre Libre Ou Mourir
TTITLE7=Ya Basta
TTITLE8=Le Journal Du Petit Franck
TTITLE9=O.D.
TTITLE10=Lobotomie
TTITLE11=Croix Cercelee
EXTD=
EXTT0=
EXTT1=
EXTT2=
EXTT3=
EXTT4=
EXTT5=
EXTT6=
EXTT7=
EXTT8=
EXTT9=
EXTT10=
EXTT11=
PLAYORDER=
